<svg width="70" height="70" viewBox="0 0 70 70" fill="none" xmlns="http://www.w3.org/2000/svg">
<path d="M46.1396 28.71H38.9294V26.9026H46.1425V28.713L46.1396 28.71ZM34.1284 36.1289C34.5947 36.8554 34.8249 37.7388 34.8249 38.7762C34.8249 39.8514 34.5659 40.8103 34.0305 41.6618C33.6739 42.2599 33.1972 42.776 32.6311 43.1769C32.065 43.5778 31.422 43.8546 30.7435 43.9894C29.9664 44.1521 29.123 44.2335 28.2135 44.2335H20.1484V26.1528H28.7978C30.9766 26.1877 32.5223 26.827 33.4347 28.0795C33.9816 28.8466 34.255 29.7678 34.255 30.8401C34.255 31.9443 33.9816 32.8307 33.4261 33.5019C33.121 33.8797 32.6662 34.2226 32.0646 34.5306C32.9742 34.8677 33.665 35.3966 34.1284 36.1289ZM24.2788 33.2811H28.0695C28.8467 33.2811 29.477 33.1329 29.9606 32.8336C30.447 32.5342 30.6888 32.0054 30.6888 31.244C30.6888 30.4013 30.3693 29.8434 29.7275 29.576C29.0416 29.3687 28.3276 29.2725 27.6119 29.2912H24.2788V33.2811ZM31.0544 38.5176C31.0544 37.5789 30.6715 36.9309 29.9145 36.5822C29.4886 36.3846 28.8899 36.2829 28.1242 36.2742H24.2788V41.0922H28.0638C28.8409 41.0922 29.4454 40.9905 29.8771 40.7755C30.66 40.3832 31.0544 39.6334 31.0544 38.5176ZM48.8164 35.5768C48.9028 36.1696 48.9431 37.0268 48.9287 38.1485H39.5886C39.6404 39.4504 40.0836 40.3599 40.9298 40.8801C41.4364 41.2084 42.0524 41.3683 42.7777 41.3683C43.5405 41.3683 44.1593 41.1736 44.64 40.7726C44.9262 40.5259 45.1602 40.2234 45.3279 39.8833H48.7531C48.661 40.6534 48.2494 41.4322 47.5097 42.2255C46.3583 43.4838 44.7522 44.1144 42.6827 44.1144C41.0379 44.1359 39.4381 43.5721 38.1638 42.5219C36.8628 41.4584 36.2065 39.7322 36.2065 37.3348C36.2065 35.0886 36.7966 33.3683 37.9738 32.171C39.1539 30.9709 40.6823 30.3751 42.5647 30.3751C43.6786 30.3751 44.6832 30.5757 45.5812 30.9796C46.4735 31.3864 47.2132 32.0228 47.7946 32.8975C48.3213 33.6705 48.6581 34.5597 48.8164 35.5768ZM45.4488 35.9138C45.3855 35.013 45.0861 34.333 44.5508 33.8681C43.9981 33.3929 43.2902 33.1423 42.5647 33.1648C41.7012 33.1648 41.0363 33.4177 40.5614 33.9088C40.0865 34.4028 39.79 35.0711 39.6691 35.9138H45.4488Z" fill="#373737"/>
<path d="M17.2691 11.6234C15.7424 11.6234 14.2781 12.2357 13.1986 13.3256C12.119 14.4156 11.5125 15.8938 11.5125 17.4352V52.3064C11.5125 53.8478 12.119 55.326 13.1986 56.416C14.2781 57.5059 15.7424 58.1182 17.2691 58.1182H51.8088C53.3356 58.1182 54.7998 57.5059 55.8794 56.416C56.959 55.326 57.5655 53.8478 57.5655 52.3064V17.4352C57.5655 15.8938 56.959 14.4156 55.8794 13.3256C54.7998 12.2357 53.3356 11.6234 51.8088 11.6234H17.2691ZM17.2691 5.81152H51.8088C54.8623 5.81152 57.7908 7.03616 59.9499 9.21603C62.1091 11.3959 63.3221 14.3524 63.3221 17.4352V52.3064C63.3221 55.3892 62.1091 58.3457 59.9499 60.5256C57.7908 62.7054 54.8623 63.9301 51.8088 63.9301H17.2691C14.2156 63.9301 11.2872 62.7054 9.12801 60.5256C6.96886 58.3457 5.75586 55.3892 5.75586 52.3064V17.4352C5.75586 14.3524 6.96886 11.3959 9.12801 9.21603C11.2872 7.03616 14.2156 5.81152 17.2691 5.81152Z" fill="#373737"/>
</svg>
