<svg width="63" height="62" viewBox="0 0 63 62" fill="none" xmlns="http://www.w3.org/2000/svg">
<path d="M16.8007 20.366C18.9419 20.366 20.6776 18.6563 20.6776 16.5473C20.6776 14.4382 18.9419 12.7285 16.8007 12.7285C14.6596 12.7285 12.9238 14.4382 12.9238 16.5473C12.9238 18.6563 14.6596 20.366 16.8007 20.366Z" fill="#373737"/>
<path d="M12.9238 25.4579C12.9238 24.0519 14.081 22.9121 15.5084 22.9121H18.093C19.5205 22.9121 20.6776 24.0519 20.6776 25.4579V45.8246C20.6776 47.2307 19.5205 48.3705 18.093 48.3705H15.5084C14.081 48.3705 12.9238 47.2307 12.9238 45.8246V25.4579Z" fill="#373737"/>
<path d="M28.4303 48.3705H31.0149C32.4424 48.3705 33.5995 47.2307 33.5995 45.8246V34.3684C33.5995 30.5496 41.3533 28.0038 41.3533 33.0955V45.8257C41.3533 47.2317 42.5105 48.3705 43.9379 48.3705H46.5226C47.95 48.3705 49.1072 47.2307 49.1072 45.8246V30.5496C49.1072 25.4579 45.2302 22.9121 40.061 22.9121C34.8918 22.9121 33.5995 26.7309 33.5995 26.7309V25.4579C33.5995 24.0519 32.4424 22.9121 31.0149 22.9121H28.4303C27.0028 22.9121 25.8457 24.0519 25.8457 25.4579V45.8246C25.8457 47.2307 27.0028 48.3705 28.4303 48.3705Z" fill="#373737"/>
<path fill-rule="evenodd" clip-rule="evenodd" d="M51.6915 2.54492C55.9739 2.54492 59.4453 5.96436 59.4453 10.1824V50.9158C59.4453 55.134 55.9739 58.5533 51.6915 58.5533H10.3378C6.0555 58.5533 2.58398 55.134 2.58398 50.9158V10.1824C2.58398 5.96436 6.0555 2.54492 10.3378 2.54492H51.6915ZM51.6915 7.6366C53.119 7.6366 54.2761 8.77642 54.2761 10.1824V50.9158C54.2761 52.3219 53.119 53.4617 51.6915 53.4617H10.3378C8.91038 53.4617 7.7532 52.3219 7.7532 50.9158V10.1824C7.7532 8.77642 8.91038 7.6366 10.3378 7.6366H51.6915Z" fill="#373737"/>
</svg>
