<svg width="25" height="25" viewBox="0 0 25 25" fill="none" xmlns="http://www.w3.org/2000/svg">
<path d="M8.39893 2.95986C9.62546 -0.986612 15.2112 -0.986612 16.4377 2.95986V2.95986C16.9848 4.72019 18.6286 5.91971 20.472 5.91971V5.91971C24.6034 5.91971 26.432 11.168 23.1422 13.6669L22.8395 13.8967C21.3813 15.0044 20.7722 16.9062 21.3157 18.655L21.4731 19.1616C22.6811 23.0484 18.1897 26.196 14.9485 23.7341V23.7341C13.453 22.5982 11.3837 22.5982 9.88819 23.7341V23.7341C6.64699 26.196 2.15555 23.0484 3.36353 19.1616L3.521 18.655C4.06449 16.9062 3.4554 15.0044 1.99714 13.8967L1.69451 13.6669C-1.59538 11.168 0.233318 5.91971 4.36464 5.91971V5.91971C6.20804 5.91971 7.85183 4.72019 8.39893 2.95986V2.95986Z" fill="#979797"/>
</svg>
